<svg xmlns="http://www.w3.org/2000/svg" width="40" height="40" viewBox="0 0 40 40">
  <defs>
    <linearGradient id="emberGrad" x1="0%" y1="100%" x2="0%" y2="0%">
      <stop offset="0%" style="stop-color:#FFAE57"/>
      <stop offset="50%" style="stop-color:#FFD580"/>
      <stop offset="100%" style="stop-color:#FFCC66"/>
    </linearGradient>
  </defs>
  <rect width="40" height="40" rx="8" fill="#1e1e1e"/>
  <path d="M20 6 C14 14, 10 18, 10 26 C10 32, 14 36, 20 36 C26 36, 30 32, 30 26 C30 18, 26 14, 20 6 Z M20 32 C16 32, 14 29, 14 26 C14 22, 16 18, 20 12 C24 18, 26 22, 26 26 C26 29, 24 32, 20 32 Z" fill="url(#emberGrad)"/>
  <ellipse cx="20" cy="27" rx="4" ry="5" fill="#1e1e1e" opacity="0.3"/>
</svg>
